# xmcd CD database file
#
# Track frame offsets:
#	150
#	14795
#	38701
#	59493
#	74821
#	104264
#	129523
#	142346
#	150557
#	169161
#	207570
#	224043
#	248028
#	268049
#	289700
#	312706
#	333229
#	351572
#
# Disc length: 4880 seconds
#
# Revision: 0
# Processed by: cddbd v1.5.2PL0 Copyright (c) Steve Scherf et al.
# Submitted via: Feurio! 1.68 - http://www.feurio.com
#
DISCID=37130e12
DTITLE=Paul "Earthquake" Pena - New Train To Tuva
DYEAR=1900
DGENRE=Blues
TTITLE0=Paul Pena - Tuva Groove (Bolur daa-bol, bolbas daa-bol)
TTITLE1=Paul Pena - Cosmic MIrror
TTITLE2=Paul Pena - Venutian Lady
TTITLE3=Paul Pena - Wait On What You Want
TTITLE4=Paul Pena - Sunexin Yry (Soul's Song)
TTITLE5=Paul Pena - Jet Airliner
TTITLE6=Paul Pena - Center Of Asia
TTITLE7=Paul Pena - Kongar-Ool Ondar Blues
TTITLE8=Paul Pena - Let's Move And Groove Together
TTITLE9=Paul Pena - Tuva Farewell
TTITLE10=Paul Pena - Bit Of All Right
TTITLE11=Paul Pena - Where Has My Country Gone
TTITLE12=Paul Pena - Gonna Move
TTITLE13=Paul Pena - New Train
TTITLE14=Paul Pena - Genghis Blues o.s.t
TTITLE15=Paul Pena - Indian Boy
TTITLE16=Paul Pena - Kargyr Moan
TTITLE17=Paul Pena - Terraplane Blues
EXTD=
EXTT0=
EXTT1=
EXTT2=
EXTT3=
EXTT4=
EXTT5=
EXTT6=
EXTT7=
EXTT8=
EXTT9=
EXTT10=
EXTT11=
EXTT12=
EXTT13=
EXTT14=
EXTT15=
EXTT16=
EXTT17=
PLAYORDER=
